<mxfile host="app.diagrams.net" modified="2024-02-05T23:34:50.813Z" agent="Mozilla/5.0 (Windows NT 10.0; Win64; x64) AppleWebKit/537.36 (KHTML, like Gecko) Chrome/121.0.0.0 Safari/537.36" etag="Pl856fk2kCCHmwybTZu5" version="23.0.2" type="device">
  <diagram name="Page-1" id="AwS5rwLJ0tGenvmo1di5">
    <mxGraphModel dx="4424" dy="3040" grid="1" gridSize="10" guides="1" tooltips="1" connect="1" arrows="1" fold="1" page="1" pageScale="1" pageWidth="827" pageHeight="1169" math="0" shadow="0">
      <root>
        <mxCell id="0" />
        <mxCell id="1" parent="0" />
        <mxCell id="Y0DUsHfOsYBiIvbtw7vV-47" value="" style="rounded=0;whiteSpace=wrap;html=1;fontFamily=Helvetica;fontSize=11;fillColor=#eeeeee;strokeColor=#36393d;" parent="1" vertex="1">
          <mxGeometry x="440" y="-210" width="900" height="220" as="geometry" />
        </mxCell>
        <mxCell id="Y0DUsHfOsYBiIvbtw7vV-13" style="edgeStyle=orthogonalEdgeStyle;shape=connector;rounded=0;orthogonalLoop=1;jettySize=auto;html=1;labelBackgroundColor=default;strokeColor=default;strokeWidth=5;align=center;verticalAlign=middle;fontFamily=Helvetica;fontSize=11;fontColor=default;endArrow=none;endFill=0;" parent="1" source="Y0DUsHfOsYBiIvbtw7vV-1" target="Y0DUsHfOsYBiIvbtw7vV-6" edge="1">
          <mxGeometry relative="1" as="geometry" />
        </mxCell>
        <mxCell id="Y0DUsHfOsYBiIvbtw7vV-1" value="&lt;font style=&quot;font-size: 18px;&quot;&gt;SQLUserReposository.cs&lt;/font&gt;" style="html=1;verticalLabelPosition=middle;align=center;labelBackgroundColor=#ffffff;verticalAlign=middle;strokeWidth=2;strokeColor=#6c8ebf;shadow=0;dashed=0;shape=mxgraph.ios7.icons.document;labelPosition=center;fillColor=#dae8fc;" parent="1" vertex="1">
          <mxGeometry x="610" y="80" width="100" height="120" as="geometry" />
        </mxCell>
        <mxCell id="Y0DUsHfOsYBiIvbtw7vV-14" style="edgeStyle=orthogonalEdgeStyle;shape=connector;rounded=0;orthogonalLoop=1;jettySize=auto;html=1;labelBackgroundColor=default;strokeColor=default;strokeWidth=5;align=center;verticalAlign=middle;fontFamily=Helvetica;fontSize=11;fontColor=default;endArrow=none;endFill=0;" parent="1" source="Y0DUsHfOsYBiIvbtw7vV-2" target="Y0DUsHfOsYBiIvbtw7vV-8" edge="1">
          <mxGeometry relative="1" as="geometry" />
        </mxCell>
        <mxCell id="Y0DUsHfOsYBiIvbtw7vV-91" style="edgeStyle=orthogonalEdgeStyle;shape=connector;rounded=0;orthogonalLoop=1;jettySize=auto;html=1;labelBackgroundColor=default;strokeColor=default;strokeWidth=5;align=center;verticalAlign=middle;fontFamily=Helvetica;fontSize=11;fontColor=default;endArrow=none;endFill=0;" parent="1" source="Y0DUsHfOsYBiIvbtw7vV-2" target="Y0DUsHfOsYBiIvbtw7vV-90" edge="1">
          <mxGeometry relative="1" as="geometry" />
        </mxCell>
        <mxCell id="Y0DUsHfOsYBiIvbtw7vV-2" value="&lt;font style=&quot;font-size: 18px;&quot;&gt;SQLAdminReposository.cs&lt;/font&gt;" style="html=1;verticalLabelPosition=middle;align=center;labelBackgroundColor=#ffffff;verticalAlign=middle;strokeWidth=2;strokeColor=#6c8ebf;shadow=0;dashed=0;shape=mxgraph.ios7.icons.document;labelPosition=center;fillColor=#dae8fc;" parent="1" vertex="1">
          <mxGeometry x="610" y="250" width="100" height="120" as="geometry" />
        </mxCell>
        <mxCell id="Y0DUsHfOsYBiIvbtw7vV-17" style="edgeStyle=orthogonalEdgeStyle;shape=connector;rounded=0;orthogonalLoop=1;jettySize=auto;html=1;labelBackgroundColor=default;strokeColor=default;strokeWidth=5;align=center;verticalAlign=middle;fontFamily=Helvetica;fontSize=11;fontColor=default;endArrow=none;endFill=0;" parent="1" source="Y0DUsHfOsYBiIvbtw7vV-3" target="Y0DUsHfOsYBiIvbtw7vV-15" edge="1">
          <mxGeometry relative="1" as="geometry" />
        </mxCell>
        <mxCell id="Y0DUsHfOsYBiIvbtw7vV-92" style="edgeStyle=orthogonalEdgeStyle;shape=connector;rounded=0;orthogonalLoop=1;jettySize=auto;html=1;labelBackgroundColor=default;strokeColor=default;strokeWidth=5;align=center;verticalAlign=middle;fontFamily=Helvetica;fontSize=11;fontColor=default;endArrow=none;endFill=0;" parent="1" source="Y0DUsHfOsYBiIvbtw7vV-3" target="Y0DUsHfOsYBiIvbtw7vV-90" edge="1">
          <mxGeometry relative="1" as="geometry" />
        </mxCell>
        <mxCell id="Y0DUsHfOsYBiIvbtw7vV-3" value="&lt;font style=&quot;font-size: 18px;&quot;&gt;SQLCartitemReposository.cs&lt;/font&gt;" style="html=1;verticalLabelPosition=middle;align=center;labelBackgroundColor=#ffffff;verticalAlign=middle;strokeWidth=2;strokeColor=#6c8ebf;shadow=0;dashed=0;shape=mxgraph.ios7.icons.document;labelPosition=center;fillColor=#dae8fc;" parent="1" vertex="1">
          <mxGeometry x="610" y="430" width="100" height="120" as="geometry" />
        </mxCell>
        <mxCell id="Y0DUsHfOsYBiIvbtw7vV-19" style="edgeStyle=orthogonalEdgeStyle;shape=connector;rounded=0;orthogonalLoop=1;jettySize=auto;html=1;labelBackgroundColor=default;strokeColor=default;strokeWidth=5;align=center;verticalAlign=middle;fontFamily=Helvetica;fontSize=11;fontColor=default;endArrow=none;endFill=0;" parent="1" source="Y0DUsHfOsYBiIvbtw7vV-4" target="Y0DUsHfOsYBiIvbtw7vV-18" edge="1">
          <mxGeometry relative="1" as="geometry" />
        </mxCell>
        <mxCell id="Y0DUsHfOsYBiIvbtw7vV-93" style="edgeStyle=orthogonalEdgeStyle;shape=connector;rounded=0;orthogonalLoop=1;jettySize=auto;html=1;labelBackgroundColor=default;strokeColor=default;strokeWidth=5;align=center;verticalAlign=middle;fontFamily=Helvetica;fontSize=11;fontColor=default;endArrow=none;endFill=0;" parent="1" source="Y0DUsHfOsYBiIvbtw7vV-4" target="Y0DUsHfOsYBiIvbtw7vV-90" edge="1">
          <mxGeometry relative="1" as="geometry" />
        </mxCell>
        <mxCell id="Y0DUsHfOsYBiIvbtw7vV-4" value="&lt;font style=&quot;font-size: 18px;&quot;&gt;SQLCategoryReposository.cs&lt;/font&gt;" style="html=1;verticalLabelPosition=middle;align=center;labelBackgroundColor=#ffffff;verticalAlign=middle;strokeWidth=2;strokeColor=#6c8ebf;shadow=0;dashed=0;shape=mxgraph.ios7.icons.document;labelPosition=center;fillColor=#dae8fc;" parent="1" vertex="1">
          <mxGeometry x="610" y="610" width="100" height="120" as="geometry" />
        </mxCell>
        <mxCell id="Y0DUsHfOsYBiIvbtw7vV-21" style="edgeStyle=orthogonalEdgeStyle;shape=connector;rounded=0;orthogonalLoop=1;jettySize=auto;html=1;labelBackgroundColor=default;strokeColor=default;strokeWidth=5;align=center;verticalAlign=middle;fontFamily=Helvetica;fontSize=11;fontColor=default;endArrow=none;endFill=0;" parent="1" source="Y0DUsHfOsYBiIvbtw7vV-5" target="Y0DUsHfOsYBiIvbtw7vV-20" edge="1">
          <mxGeometry relative="1" as="geometry" />
        </mxCell>
        <mxCell id="Y0DUsHfOsYBiIvbtw7vV-94" style="edgeStyle=orthogonalEdgeStyle;shape=connector;rounded=0;orthogonalLoop=1;jettySize=auto;html=1;labelBackgroundColor=default;strokeColor=default;strokeWidth=5;align=center;verticalAlign=middle;fontFamily=Helvetica;fontSize=11;fontColor=default;endArrow=none;endFill=0;" parent="1" source="Y0DUsHfOsYBiIvbtw7vV-5" target="Y0DUsHfOsYBiIvbtw7vV-90" edge="1">
          <mxGeometry relative="1" as="geometry" />
        </mxCell>
        <mxCell id="Y0DUsHfOsYBiIvbtw7vV-5" value="&lt;font style=&quot;font-size: 18px;&quot;&gt;SQLProductReposository.cs&lt;/font&gt;" style="html=1;verticalLabelPosition=middle;align=center;labelBackgroundColor=#ffffff;verticalAlign=middle;strokeWidth=2;strokeColor=#6c8ebf;shadow=0;dashed=0;shape=mxgraph.ios7.icons.document;fillColor=#dae8fc;labelPosition=center;" parent="1" vertex="1">
          <mxGeometry x="610" y="800" width="100" height="120" as="geometry" />
        </mxCell>
        <mxCell id="Y0DUsHfOsYBiIvbtw7vV-23" style="edgeStyle=orthogonalEdgeStyle;shape=connector;rounded=0;orthogonalLoop=1;jettySize=auto;html=1;labelBackgroundColor=default;strokeColor=default;strokeWidth=5;align=center;verticalAlign=middle;fontFamily=Helvetica;fontSize=11;fontColor=default;endArrow=none;endFill=0;" parent="1" source="Y0DUsHfOsYBiIvbtw7vV-6" target="Y0DUsHfOsYBiIvbtw7vV-22" edge="1">
          <mxGeometry relative="1" as="geometry" />
        </mxCell>
        <mxCell id="Y0DUsHfOsYBiIvbtw7vV-6" value="&lt;font style=&quot;font-size: 18px;&quot;&gt;IUserReposository.cs&lt;/font&gt;" style="html=1;verticalLabelPosition=middle;align=center;labelBackgroundColor=#ffffff;verticalAlign=middle;strokeWidth=2;strokeColor=#82b366;shadow=0;dashed=0;shape=mxgraph.ios7.icons.document;labelPosition=center;fillColor=#d5e8d4;" parent="1" vertex="1">
          <mxGeometry x="310" y="80" width="100" height="120" as="geometry" />
        </mxCell>
        <mxCell id="Y0DUsHfOsYBiIvbtw7vV-26" style="edgeStyle=orthogonalEdgeStyle;shape=connector;rounded=0;orthogonalLoop=1;jettySize=auto;html=1;labelBackgroundColor=default;strokeColor=default;strokeWidth=5;align=center;verticalAlign=middle;fontFamily=Helvetica;fontSize=11;fontColor=default;endArrow=none;endFill=0;" parent="1" source="Y0DUsHfOsYBiIvbtw7vV-8" target="Y0DUsHfOsYBiIvbtw7vV-24" edge="1">
          <mxGeometry relative="1" as="geometry" />
        </mxCell>
        <mxCell id="Y0DUsHfOsYBiIvbtw7vV-8" value="&lt;font style=&quot;font-size: 18px;&quot;&gt;IAdminReposository.cs&lt;/font&gt;" style="html=1;verticalLabelPosition=middle;align=center;labelBackgroundColor=#ffffff;verticalAlign=middle;strokeWidth=2;strokeColor=#82b366;shadow=0;dashed=0;shape=mxgraph.ios7.icons.document;labelPosition=center;fillColor=#d5e8d4;" parent="1" vertex="1">
          <mxGeometry x="310" y="250" width="100" height="120" as="geometry" />
        </mxCell>
        <mxCell id="Y0DUsHfOsYBiIvbtw7vV-28" style="edgeStyle=orthogonalEdgeStyle;shape=connector;rounded=0;orthogonalLoop=1;jettySize=auto;html=1;labelBackgroundColor=default;strokeColor=default;strokeWidth=5;align=center;verticalAlign=middle;fontFamily=Helvetica;fontSize=11;fontColor=default;endArrow=none;endFill=0;" parent="1" source="Y0DUsHfOsYBiIvbtw7vV-15" target="Y0DUsHfOsYBiIvbtw7vV-27" edge="1">
          <mxGeometry relative="1" as="geometry" />
        </mxCell>
        <mxCell id="Y0DUsHfOsYBiIvbtw7vV-15" value="&lt;font style=&quot;font-size: 18px;&quot;&gt;ICartitemReposository.cs&lt;/font&gt;" style="html=1;verticalLabelPosition=middle;align=center;labelBackgroundColor=#ffffff;verticalAlign=middle;strokeWidth=2;strokeColor=#82b366;shadow=0;dashed=0;shape=mxgraph.ios7.icons.document;labelPosition=center;fillColor=#d5e8d4;" parent="1" vertex="1">
          <mxGeometry x="310" y="430" width="100" height="120" as="geometry" />
        </mxCell>
        <mxCell id="Y0DUsHfOsYBiIvbtw7vV-30" style="edgeStyle=orthogonalEdgeStyle;shape=connector;rounded=0;orthogonalLoop=1;jettySize=auto;html=1;labelBackgroundColor=default;strokeColor=default;strokeWidth=5;align=center;verticalAlign=middle;fontFamily=Helvetica;fontSize=11;fontColor=default;endArrow=none;endFill=0;" parent="1" source="Y0DUsHfOsYBiIvbtw7vV-18" target="Y0DUsHfOsYBiIvbtw7vV-29" edge="1">
          <mxGeometry relative="1" as="geometry" />
        </mxCell>
        <mxCell id="Y0DUsHfOsYBiIvbtw7vV-18" value="&lt;font style=&quot;font-size: 18px;&quot;&gt;ICategoryReposository.cs&lt;/font&gt;" style="html=1;verticalLabelPosition=middle;align=center;labelBackgroundColor=#ffffff;verticalAlign=middle;strokeWidth=2;strokeColor=#82b366;shadow=0;dashed=0;shape=mxgraph.ios7.icons.document;labelPosition=center;fillColor=#d5e8d4;" parent="1" vertex="1">
          <mxGeometry x="314" y="610" width="100" height="120" as="geometry" />
        </mxCell>
        <mxCell id="Y0DUsHfOsYBiIvbtw7vV-32" style="edgeStyle=orthogonalEdgeStyle;shape=connector;rounded=0;orthogonalLoop=1;jettySize=auto;html=1;labelBackgroundColor=default;strokeColor=default;strokeWidth=5;align=center;verticalAlign=middle;fontFamily=Helvetica;fontSize=11;fontColor=default;endArrow=none;endFill=0;" parent="1" source="Y0DUsHfOsYBiIvbtw7vV-20" target="Y0DUsHfOsYBiIvbtw7vV-31" edge="1">
          <mxGeometry relative="1" as="geometry" />
        </mxCell>
        <mxCell id="Y0DUsHfOsYBiIvbtw7vV-20" value="&lt;font style=&quot;font-size: 18px;&quot;&gt;IProductReposository.cs&lt;/font&gt;" style="html=1;verticalLabelPosition=middle;align=center;labelBackgroundColor=#ffffff;verticalAlign=middle;strokeWidth=2;strokeColor=#82b366;shadow=0;dashed=0;shape=mxgraph.ios7.icons.document;labelPosition=center;fillColor=#d5e8d4;" parent="1" vertex="1">
          <mxGeometry x="314" y="800" width="100" height="120" as="geometry" />
        </mxCell>
        <mxCell id="Y0DUsHfOsYBiIvbtw7vV-41" style="edgeStyle=orthogonalEdgeStyle;shape=connector;rounded=0;orthogonalLoop=1;jettySize=auto;html=1;labelBackgroundColor=default;strokeColor=default;strokeWidth=5;align=center;verticalAlign=middle;fontFamily=Helvetica;fontSize=11;fontColor=default;endArrow=none;endFill=0;" parent="1" source="Y0DUsHfOsYBiIvbtw7vV-22" target="Y0DUsHfOsYBiIvbtw7vV-40" edge="1">
          <mxGeometry relative="1" as="geometry" />
        </mxCell>
        <mxCell id="Y0DUsHfOsYBiIvbtw7vV-22" value="&lt;span style=&quot;font-size: 18px;&quot;&gt;UserController.cs&lt;/span&gt;" style="html=1;verticalLabelPosition=middle;align=center;labelBackgroundColor=#ffffff;verticalAlign=middle;strokeWidth=2;strokeColor=#d79b00;shadow=0;dashed=0;shape=mxgraph.ios7.icons.document;labelPosition=center;fillColor=#ffe6cc;" parent="1" vertex="1">
          <mxGeometry x="60" y="80" width="100" height="120" as="geometry" />
        </mxCell>
        <mxCell id="Y0DUsHfOsYBiIvbtw7vV-50" style="edgeStyle=orthogonalEdgeStyle;shape=connector;rounded=0;orthogonalLoop=1;jettySize=auto;html=1;labelBackgroundColor=default;strokeColor=default;strokeWidth=5;align=center;verticalAlign=middle;fontFamily=Helvetica;fontSize=11;fontColor=default;endArrow=none;endFill=0;" parent="1" source="Y0DUsHfOsYBiIvbtw7vV-24" target="Y0DUsHfOsYBiIvbtw7vV-48" edge="1">
          <mxGeometry relative="1" as="geometry" />
        </mxCell>
        <mxCell id="Y0DUsHfOsYBiIvbtw7vV-24" value="&lt;span style=&quot;font-size: 18px;&quot;&gt;AdminController.cs&lt;/span&gt;" style="html=1;verticalLabelPosition=middle;align=center;labelBackgroundColor=#ffffff;verticalAlign=middle;strokeWidth=2;strokeColor=#d79b00;shadow=0;dashed=0;shape=mxgraph.ios7.icons.document;labelPosition=center;fillColor=#ffe6cc;" parent="1" vertex="1">
          <mxGeometry x="50" y="250" width="100" height="120" as="geometry" />
        </mxCell>
        <mxCell id="Y0DUsHfOsYBiIvbtw7vV-53" style="edgeStyle=orthogonalEdgeStyle;shape=connector;rounded=0;orthogonalLoop=1;jettySize=auto;html=1;labelBackgroundColor=default;strokeColor=default;strokeWidth=5;align=center;verticalAlign=middle;fontFamily=Helvetica;fontSize=11;fontColor=default;endArrow=none;endFill=0;" parent="1" source="Y0DUsHfOsYBiIvbtw7vV-27" target="Y0DUsHfOsYBiIvbtw7vV-51" edge="1">
          <mxGeometry relative="1" as="geometry" />
        </mxCell>
        <mxCell id="Y0DUsHfOsYBiIvbtw7vV-27" value="&lt;span style=&quot;font-size: 18px;&quot;&gt;CartController.cs&lt;/span&gt;" style="html=1;verticalLabelPosition=middle;align=center;labelBackgroundColor=#ffffff;verticalAlign=middle;strokeWidth=2;strokeColor=#d79b00;shadow=0;dashed=0;shape=mxgraph.ios7.icons.document;labelPosition=center;fillColor=#ffe6cc;" parent="1" vertex="1">
          <mxGeometry x="50" y="430" width="100" height="120" as="geometry" />
        </mxCell>
        <mxCell id="Y0DUsHfOsYBiIvbtw7vV-57" style="edgeStyle=orthogonalEdgeStyle;shape=connector;rounded=0;orthogonalLoop=1;jettySize=auto;html=1;labelBackgroundColor=default;strokeColor=default;strokeWidth=5;align=center;verticalAlign=middle;fontFamily=Helvetica;fontSize=11;fontColor=default;endArrow=none;endFill=0;" parent="1" source="Y0DUsHfOsYBiIvbtw7vV-29" target="Y0DUsHfOsYBiIvbtw7vV-54" edge="1">
          <mxGeometry relative="1" as="geometry" />
        </mxCell>
        <mxCell id="Y0DUsHfOsYBiIvbtw7vV-29" value="&lt;span style=&quot;font-size: 18px;&quot;&gt;CategoryController.cs&lt;/span&gt;" style="html=1;verticalLabelPosition=middle;align=center;labelBackgroundColor=#ffffff;verticalAlign=middle;strokeWidth=2;strokeColor=#d79b00;shadow=0;dashed=0;shape=mxgraph.ios7.icons.document;labelPosition=center;fillColor=#ffe6cc;" parent="1" vertex="1">
          <mxGeometry x="50" y="610" width="100" height="120" as="geometry" />
        </mxCell>
        <mxCell id="Y0DUsHfOsYBiIvbtw7vV-60" style="edgeStyle=orthogonalEdgeStyle;shape=connector;rounded=0;orthogonalLoop=1;jettySize=auto;html=1;labelBackgroundColor=default;strokeColor=default;strokeWidth=5;align=center;verticalAlign=middle;fontFamily=Helvetica;fontSize=11;fontColor=default;endArrow=none;endFill=0;" parent="1" source="Y0DUsHfOsYBiIvbtw7vV-31" target="Y0DUsHfOsYBiIvbtw7vV-58" edge="1">
          <mxGeometry relative="1" as="geometry" />
        </mxCell>
        <mxCell id="Y0DUsHfOsYBiIvbtw7vV-31" value="&lt;span style=&quot;font-size: 18px;&quot;&gt;ProductController.cs&lt;/span&gt;" style="html=1;verticalLabelPosition=middle;align=center;labelBackgroundColor=#ffffff;verticalAlign=middle;strokeWidth=2;strokeColor=#d79b00;shadow=0;dashed=0;shape=mxgraph.ios7.icons.document;labelPosition=center;fillColor=#ffe6cc;" parent="1" vertex="1">
          <mxGeometry x="50" y="800" width="100" height="120" as="geometry" />
        </mxCell>
        <mxCell id="Y0DUsHfOsYBiIvbtw7vV-37" style="edgeStyle=orthogonalEdgeStyle;shape=connector;rounded=0;orthogonalLoop=1;jettySize=auto;html=1;entryX=0.504;entryY=-0.023;entryDx=0;entryDy=0;entryPerimeter=0;labelBackgroundColor=default;strokeColor=#82b366;strokeWidth=5;align=center;verticalAlign=middle;fontFamily=Helvetica;fontSize=11;fontColor=default;endArrow=none;endFill=0;fillColor=#d5e8d4;" parent="1" source="Y0DUsHfOsYBiIvbtw7vV-6" target="Y0DUsHfOsYBiIvbtw7vV-31" edge="1">
          <mxGeometry relative="1" as="geometry">
            <Array as="points">
              <mxPoint x="240" y="170" />
              <mxPoint x="240" y="760" />
              <mxPoint x="100" y="760" />
            </Array>
          </mxGeometry>
        </mxCell>
        <mxCell id="Y0DUsHfOsYBiIvbtw7vV-38" style="edgeStyle=orthogonalEdgeStyle;shape=connector;rounded=0;orthogonalLoop=1;jettySize=auto;html=1;entryX=1.008;entryY=0.733;entryDx=0;entryDy=0;entryPerimeter=0;labelBackgroundColor=default;strokeColor=#b85450;strokeWidth=5;align=center;verticalAlign=middle;fontFamily=Helvetica;fontSize=11;fontColor=default;endArrow=none;endFill=0;fillColor=#f8cecc;" parent="1" source="Y0DUsHfOsYBiIvbtw7vV-20" target="Y0DUsHfOsYBiIvbtw7vV-27" edge="1">
          <mxGeometry relative="1" as="geometry">
            <Array as="points">
              <mxPoint x="200" y="830" />
              <mxPoint x="200" y="518" />
            </Array>
          </mxGeometry>
        </mxCell>
        <mxCell id="Y0DUsHfOsYBiIvbtw7vV-39" style="edgeStyle=orthogonalEdgeStyle;shape=connector;rounded=0;orthogonalLoop=1;jettySize=auto;html=1;entryX=1.008;entryY=0.287;entryDx=0;entryDy=0;entryPerimeter=0;labelBackgroundColor=default;strokeColor=#6c8ebf;strokeWidth=5;align=center;verticalAlign=middle;fontFamily=Helvetica;fontSize=11;fontColor=default;endArrow=none;endFill=0;fillColor=#dae8fc;" parent="1" source="Y0DUsHfOsYBiIvbtw7vV-6" target="Y0DUsHfOsYBiIvbtw7vV-27" edge="1">
          <mxGeometry relative="1" as="geometry">
            <Array as="points">
              <mxPoint x="200" y="110" />
              <mxPoint x="200" y="464" />
            </Array>
          </mxGeometry>
        </mxCell>
        <mxCell id="Y0DUsHfOsYBiIvbtw7vV-40" value="&lt;font style=&quot;font-size: 14px;&quot;&gt;User.cs&lt;br&gt;UserDTO.cs&lt;br&gt;CreateUser.DTO&lt;/font&gt;" style="html=1;verticalLabelPosition=middle;align=center;labelBackgroundColor=#ffffff;verticalAlign=middle;strokeWidth=2;strokeColor=#9673a6;shadow=0;dashed=0;shape=mxgraph.ios7.icons.documents;fontFamily=Helvetica;fontSize=11;labelPosition=center;fillColor=#e1d5e7;" parent="1" vertex="1">
          <mxGeometry x="-190" y="80" width="130" height="120" as="geometry" />
        </mxCell>
        <mxCell id="Y0DUsHfOsYBiIvbtw7vV-42" value="&lt;span style=&quot;font-size: 18px;&quot;&gt;Controllers&lt;/span&gt;" style="html=1;verticalLabelPosition=middle;align=center;labelBackgroundColor=#ffffff;verticalAlign=middle;strokeWidth=2;strokeColor=#d79b00;shadow=0;dashed=0;shape=mxgraph.ios7.icons.document;labelPosition=center;fillColor=#ffe6cc;" parent="1" vertex="1">
          <mxGeometry x="460" y="-130" width="100" height="120" as="geometry" />
        </mxCell>
        <mxCell id="Y0DUsHfOsYBiIvbtw7vV-43" value="&lt;span style=&quot;font-size: 18px;&quot;&gt;Interface&amp;nbsp;&lt;/span&gt;&lt;br&gt;&lt;span style=&quot;font-size: 18px;&quot;&gt;Repositories&lt;/span&gt;" style="html=1;verticalLabelPosition=middle;align=center;labelBackgroundColor=#ffffff;verticalAlign=middle;strokeWidth=2;strokeColor=#82b366;shadow=0;dashed=0;shape=mxgraph.ios7.icons.document;labelPosition=center;fillColor=#d5e8d4;" parent="1" vertex="1">
          <mxGeometry x="634" y="-130" width="100" height="120" as="geometry" />
        </mxCell>
        <mxCell id="Y0DUsHfOsYBiIvbtw7vV-44" value="&lt;span style=&quot;font-size: 18px;&quot;&gt;SQL&lt;br&gt;Repositories&lt;/span&gt;&lt;span style=&quot;font-size: 18px;&quot;&gt;&lt;br&gt;&lt;/span&gt;" style="html=1;verticalLabelPosition=middle;align=center;labelBackgroundColor=#ffffff;verticalAlign=middle;strokeWidth=2;strokeColor=#6c8ebf;shadow=0;dashed=0;shape=mxgraph.ios7.icons.document;fillColor=#dae8fc;labelPosition=center;" parent="1" vertex="1">
          <mxGeometry x="820" y="-130" width="100" height="120" as="geometry" />
        </mxCell>
        <mxCell id="Y0DUsHfOsYBiIvbtw7vV-45" value="&lt;span style=&quot;font-size: 14px;&quot;&gt;Domain models&amp;nbsp;&lt;br&gt;&amp;amp; DTOs&lt;br&gt;&lt;/span&gt;" style="html=1;verticalLabelPosition=middle;align=center;labelBackgroundColor=#ffffff;verticalAlign=middle;strokeWidth=2;strokeColor=#9673a6;shadow=0;dashed=0;shape=mxgraph.ios7.icons.documents;fontFamily=Helvetica;fontSize=11;labelPosition=center;fillColor=#e1d5e7;" parent="1" vertex="1">
          <mxGeometry x="990" y="-130" width="130" height="120" as="geometry" />
        </mxCell>
        <mxCell id="Y0DUsHfOsYBiIvbtw7vV-46" value="&lt;font style=&quot;font-size: 18px;&quot;&gt;&lt;u&gt;KEY:&lt;/u&gt;&lt;/font&gt;" style="text;html=1;strokeColor=none;fillColor=none;align=center;verticalAlign=middle;whiteSpace=wrap;rounded=0;fontSize=11;fontFamily=Helvetica;fontColor=default;" parent="1" vertex="1">
          <mxGeometry x="450" y="-180" width="60" height="30" as="geometry" />
        </mxCell>
        <mxCell id="Y0DUsHfOsYBiIvbtw7vV-48" value="&lt;span style=&quot;font-size: 14px;&quot;&gt;Admin.cs&lt;br&gt;AdminDTO.cs&lt;br&gt;CreateAdminDTO.cs&lt;br&gt;&lt;/span&gt;" style="html=1;verticalLabelPosition=middle;align=center;labelBackgroundColor=#ffffff;verticalAlign=middle;strokeWidth=2;strokeColor=#9673a6;shadow=0;dashed=0;shape=mxgraph.ios7.icons.documents;fontFamily=Helvetica;fontSize=11;labelPosition=center;fillColor=#e1d5e7;" parent="1" vertex="1">
          <mxGeometry x="-190" y="250" width="130" height="120" as="geometry" />
        </mxCell>
        <mxCell id="Y0DUsHfOsYBiIvbtw7vV-51" value="&lt;font style=&quot;font-size: 14px;&quot;&gt;Cartitem.cs&lt;br&gt;&lt;span style=&quot;&quot;&gt;Cartitem.DTO&lt;/span&gt;&lt;br&gt;&lt;span style=&quot;&quot;&gt;AddCartitemDTO.cs&lt;/span&gt;&lt;br&gt;&lt;span style=&quot;&quot;&gt;UpdateCartItemDTO.cs&lt;br&gt;&lt;/span&gt;DeleteCartItemDTO.cs&lt;br&gt;&lt;/font&gt;" style="html=1;verticalLabelPosition=middle;align=center;labelBackgroundColor=#ffffff;verticalAlign=middle;strokeWidth=2;strokeColor=#9673a6;shadow=0;dashed=0;shape=mxgraph.ios7.icons.documents;fontFamily=Helvetica;fontSize=11;labelPosition=center;fillColor=#e1d5e7;" parent="1" vertex="1">
          <mxGeometry x="-200" y="430" width="130" height="120" as="geometry" />
        </mxCell>
        <mxCell id="Y0DUsHfOsYBiIvbtw7vV-54" value="&lt;font style=&quot;font-size: 14px;&quot;&gt;CategoryDTO.cs&lt;br&gt;Category.cs&lt;br&gt;&lt;/font&gt;" style="html=1;verticalLabelPosition=middle;align=center;labelBackgroundColor=#ffffff;verticalAlign=middle;strokeWidth=2;strokeColor=#9673a6;shadow=0;dashed=0;shape=mxgraph.ios7.icons.documents;fontFamily=Helvetica;fontSize=11;labelPosition=center;fillColor=#e1d5e7;" parent="1" vertex="1">
          <mxGeometry x="-190" y="610" width="130" height="120" as="geometry" />
        </mxCell>
        <mxCell id="Y0DUsHfOsYBiIvbtw7vV-58" value="&lt;font style=&quot;font-size: 14px;&quot;&gt;Status.cs&lt;br&gt;StatusDTO.cs&lt;br&gt;&lt;/font&gt;" style="html=1;verticalLabelPosition=middle;align=center;labelBackgroundColor=#ffffff;verticalAlign=middle;strokeWidth=2;strokeColor=#9673a6;shadow=0;dashed=0;shape=mxgraph.ios7.icons.documents;fontFamily=Helvetica;fontSize=11;labelPosition=center;fillColor=#e1d5e7;" parent="1" vertex="1">
          <mxGeometry x="-390" y="710" width="130" height="120" as="geometry" />
        </mxCell>
        <mxCell id="Y0DUsHfOsYBiIvbtw7vV-59" value="&lt;font style=&quot;font-size: 14px;&quot;&gt;Product.cs&lt;br&gt;&lt;span style=&quot;&quot;&gt;ProductDTO.cs&lt;/span&gt;&lt;br&gt;&lt;span style=&quot;&quot;&gt;CreateProductDTO.cs&lt;/span&gt;&lt;br&gt;&lt;/font&gt;" style="html=1;verticalLabelPosition=middle;align=center;labelBackgroundColor=#ffffff;verticalAlign=middle;strokeWidth=2;strokeColor=#9673a6;shadow=0;dashed=0;shape=mxgraph.ios7.icons.documents;fontFamily=Helvetica;fontSize=11;labelPosition=center;fillColor=#e1d5e7;" parent="1" vertex="1">
          <mxGeometry x="-400" y="860" width="130" height="120" as="geometry" />
        </mxCell>
        <mxCell id="Y0DUsHfOsYBiIvbtw7vV-63" style="edgeStyle=orthogonalEdgeStyle;shape=connector;rounded=0;orthogonalLoop=1;jettySize=auto;html=1;entryX=0.998;entryY=0.593;entryDx=0;entryDy=0;entryPerimeter=0;labelBackgroundColor=default;strokeColor=default;strokeWidth=5;align=center;verticalAlign=middle;fontFamily=Helvetica;fontSize=11;fontColor=default;endArrow=none;endFill=0;" parent="1" source="Y0DUsHfOsYBiIvbtw7vV-31" target="Y0DUsHfOsYBiIvbtw7vV-59" edge="1">
          <mxGeometry relative="1" as="geometry">
            <Array as="points">
              <mxPoint x="-105" y="880" />
              <mxPoint x="-105" y="930" />
              <mxPoint x="-270" y="930" />
            </Array>
          </mxGeometry>
        </mxCell>
        <mxCell id="Y0DUsHfOsYBiIvbtw7vV-64" value="&lt;font style=&quot;font-size: 14px;&quot;&gt;productimgDTO.cs&lt;br&gt;CreateProductimgDTO.cs&lt;br&gt;&lt;/font&gt;" style="html=1;verticalLabelPosition=middle;align=center;labelBackgroundColor=#ffffff;verticalAlign=middle;strokeWidth=2;strokeColor=#9673a6;shadow=0;dashed=0;shape=mxgraph.ios7.icons.documents;fontFamily=Helvetica;fontSize=11;labelPosition=center;fillColor=#e1d5e7;" parent="1" vertex="1">
          <mxGeometry x="-230" y="980" width="130" height="120" as="geometry" />
        </mxCell>
        <mxCell id="Y0DUsHfOsYBiIvbtw7vV-66" style="edgeStyle=orthogonalEdgeStyle;shape=connector;rounded=0;orthogonalLoop=1;jettySize=auto;html=1;entryX=0.992;entryY=0.497;entryDx=0;entryDy=0;entryPerimeter=0;labelBackgroundColor=default;strokeColor=default;strokeWidth=5;align=center;verticalAlign=middle;fontFamily=Helvetica;fontSize=11;fontColor=default;endArrow=none;endFill=0;" parent="1" source="Y0DUsHfOsYBiIvbtw7vV-31" target="Y0DUsHfOsYBiIvbtw7vV-64" edge="1">
          <mxGeometry relative="1" as="geometry">
            <Array as="points">
              <mxPoint x="100" y="950" />
              <mxPoint x="-25" y="950" />
              <mxPoint x="-25" y="1040" />
            </Array>
          </mxGeometry>
        </mxCell>
        <mxCell id="Y0DUsHfOsYBiIvbtw7vV-67" value="&lt;span style=&quot;font-size: 14px;&quot;&gt;JWT files&lt;br&gt;&lt;/span&gt;" style="html=1;verticalLabelPosition=middle;align=center;labelBackgroundColor=#ffffff;verticalAlign=middle;strokeWidth=2;strokeColor=#b85450;shadow=0;dashed=0;shape=mxgraph.ios7.icons.documents;fontFamily=Helvetica;fontSize=11;labelPosition=center;fillColor=#f8cecc;" parent="1" vertex="1">
          <mxGeometry x="1190" y="-130" width="130" height="120" as="geometry" />
        </mxCell>
        <mxCell id="Y0DUsHfOsYBiIvbtw7vV-68" value="&lt;font style=&quot;font-size: 14px;&quot;&gt;JWTGen.cs&lt;br&gt;DecodeJWT.cs&lt;/font&gt;" style="html=1;verticalLabelPosition=middle;align=center;labelBackgroundColor=#ffffff;verticalAlign=middle;strokeWidth=2;strokeColor=#b85450;shadow=0;dashed=0;shape=mxgraph.ios7.icons.documents;fontFamily=Helvetica;fontSize=11;labelPosition=center;fillColor=#f8cecc;" parent="1" vertex="1">
          <mxGeometry x="-400" y="260" width="130" height="120" as="geometry" />
        </mxCell>
        <mxCell id="Y0DUsHfOsYBiIvbtw7vV-71" style="edgeStyle=orthogonalEdgeStyle;shape=connector;rounded=0;orthogonalLoop=1;jettySize=auto;html=1;entryX=-0.01;entryY=0.803;entryDx=0;entryDy=0;entryPerimeter=0;labelBackgroundColor=default;strokeColor=default;strokeWidth=5;align=center;verticalAlign=middle;fontFamily=Helvetica;fontSize=11;fontColor=default;endArrow=none;endFill=0;" parent="1" source="Y0DUsHfOsYBiIvbtw7vV-68" target="Y0DUsHfOsYBiIvbtw7vV-22" edge="1">
          <mxGeometry relative="1" as="geometry">
            <Array as="points">
              <mxPoint x="-335" y="230" />
              <mxPoint x="-30" y="230" />
              <mxPoint x="-30" y="176" />
            </Array>
          </mxGeometry>
        </mxCell>
        <mxCell id="Y0DUsHfOsYBiIvbtw7vV-72" style="edgeStyle=orthogonalEdgeStyle;shape=connector;rounded=0;orthogonalLoop=1;jettySize=auto;html=1;entryX=0.218;entryY=1.027;entryDx=0;entryDy=0;entryPerimeter=0;labelBackgroundColor=default;strokeColor=default;strokeWidth=5;align=center;verticalAlign=middle;fontFamily=Helvetica;fontSize=11;fontColor=default;endArrow=none;endFill=0;exitX=0.435;exitY=1.003;exitDx=0;exitDy=0;exitPerimeter=0;" parent="1" source="Y0DUsHfOsYBiIvbtw7vV-68" target="Y0DUsHfOsYBiIvbtw7vV-24" edge="1">
          <mxGeometry relative="1" as="geometry">
            <Array as="points">
              <mxPoint x="-343" y="410" />
              <mxPoint x="72" y="410" />
            </Array>
          </mxGeometry>
        </mxCell>
        <mxCell id="Y0DUsHfOsYBiIvbtw7vV-84" style="edgeStyle=orthogonalEdgeStyle;shape=connector;rounded=0;orthogonalLoop=1;jettySize=auto;html=1;labelBackgroundColor=default;strokeColor=default;strokeWidth=5;align=center;verticalAlign=middle;fontFamily=Helvetica;fontSize=11;fontColor=default;endArrow=none;endFill=0;" parent="1" source="Y0DUsHfOsYBiIvbtw7vV-77" target="Y0DUsHfOsYBiIvbtw7vV-83" edge="1">
          <mxGeometry relative="1" as="geometry" />
        </mxCell>
        <mxCell id="Y0DUsHfOsYBiIvbtw7vV-77" value="&lt;font style=&quot;font-size: 14px;&quot;&gt;Program.cs&lt;/font&gt;" style="html=1;verticalLabelPosition=middle;align=center;labelBackgroundColor=#ffffff;verticalAlign=middle;strokeWidth=2;strokeColor=#d6b656;shadow=0;dashed=0;shape=mxgraph.ios7.icons.document;labelPosition=center;fillColor=#fff2cc;" parent="1" vertex="1">
          <mxGeometry x="-50" y="-120" width="100" height="120" as="geometry" />
        </mxCell>
        <mxCell id="Y0DUsHfOsYBiIvbtw7vV-78" style="edgeStyle=orthogonalEdgeStyle;shape=connector;rounded=0;orthogonalLoop=1;jettySize=auto;html=1;entryX=-0.003;entryY=0.231;entryDx=0;entryDy=0;entryPerimeter=0;labelBackgroundColor=default;strokeColor=#d6b656;strokeWidth=5;align=center;verticalAlign=middle;fontFamily=Helvetica;fontSize=11;fontColor=default;endArrow=none;endFill=0;fillColor=#fff2cc;" parent="1" source="Y0DUsHfOsYBiIvbtw7vV-77" target="Y0DUsHfOsYBiIvbtw7vV-31" edge="1">
          <mxGeometry relative="1" as="geometry" />
        </mxCell>
        <mxCell id="Y0DUsHfOsYBiIvbtw7vV-79" style="edgeStyle=orthogonalEdgeStyle;shape=connector;rounded=0;orthogonalLoop=1;jettySize=auto;html=1;entryX=-0.003;entryY=0.814;entryDx=0;entryDy=0;entryPerimeter=0;labelBackgroundColor=default;strokeColor=#d6b656;strokeWidth=5;align=center;verticalAlign=middle;fontFamily=Helvetica;fontSize=11;fontColor=default;endArrow=none;endFill=0;fillColor=#fff2cc;" parent="1" source="Y0DUsHfOsYBiIvbtw7vV-77" target="Y0DUsHfOsYBiIvbtw7vV-29" edge="1">
          <mxGeometry relative="1" as="geometry" />
        </mxCell>
        <mxCell id="Y0DUsHfOsYBiIvbtw7vV-80" style="edgeStyle=orthogonalEdgeStyle;shape=connector;rounded=0;orthogonalLoop=1;jettySize=auto;html=1;entryX=0.01;entryY=0.803;entryDx=0;entryDy=0;entryPerimeter=0;labelBackgroundColor=default;strokeColor=#d6b656;strokeWidth=5;align=center;verticalAlign=middle;fontFamily=Helvetica;fontSize=11;fontColor=default;endArrow=none;endFill=0;fillColor=#fff2cc;" parent="1" source="Y0DUsHfOsYBiIvbtw7vV-77" target="Y0DUsHfOsYBiIvbtw7vV-27" edge="1">
          <mxGeometry relative="1" as="geometry" />
        </mxCell>
        <mxCell id="Y0DUsHfOsYBiIvbtw7vV-81" style="edgeStyle=orthogonalEdgeStyle;shape=connector;rounded=0;orthogonalLoop=1;jettySize=auto;html=1;entryX=0.01;entryY=0.869;entryDx=0;entryDy=0;entryPerimeter=0;labelBackgroundColor=default;strokeColor=#d6b656;strokeWidth=5;align=center;verticalAlign=middle;fontFamily=Helvetica;fontSize=11;fontColor=default;endArrow=none;endFill=0;fillColor=#fff2cc;" parent="1" source="Y0DUsHfOsYBiIvbtw7vV-77" target="Y0DUsHfOsYBiIvbtw7vV-24" edge="1">
          <mxGeometry relative="1" as="geometry" />
        </mxCell>
        <mxCell id="Y0DUsHfOsYBiIvbtw7vV-82" style="edgeStyle=orthogonalEdgeStyle;shape=connector;rounded=0;orthogonalLoop=1;jettySize=auto;html=1;entryX=-0.023;entryY=0.308;entryDx=0;entryDy=0;entryPerimeter=0;labelBackgroundColor=default;strokeColor=#d6b656;strokeWidth=5;align=center;verticalAlign=middle;fontFamily=Helvetica;fontSize=11;fontColor=default;endArrow=none;endFill=0;fillColor=#fff2cc;" parent="1" source="Y0DUsHfOsYBiIvbtw7vV-77" target="Y0DUsHfOsYBiIvbtw7vV-22" edge="1">
          <mxGeometry relative="1" as="geometry">
            <Array as="points">
              <mxPoint y="117" />
            </Array>
          </mxGeometry>
        </mxCell>
        <mxCell id="Y0DUsHfOsYBiIvbtw7vV-83" value="&lt;font style=&quot;font-size: 14px;&quot;&gt;SecretKeyGen.cs&lt;/font&gt;" style="html=1;verticalLabelPosition=middle;align=center;labelBackgroundColor=#ffffff;verticalAlign=middle;strokeWidth=2;strokeColor=#b85450;shadow=0;dashed=0;shape=mxgraph.ios7.icons.document;labelPosition=center;fillColor=#f8cecc;" parent="1" vertex="1">
          <mxGeometry x="-240" y="-120" width="100" height="120" as="geometry" />
        </mxCell>
        <mxCell id="Y0DUsHfOsYBiIvbtw7vV-87" style="edgeStyle=orthogonalEdgeStyle;shape=connector;rounded=0;orthogonalLoop=1;jettySize=auto;html=1;labelBackgroundColor=default;strokeColor=#314354;strokeWidth=5;align=center;verticalAlign=middle;fontFamily=Helvetica;fontSize=11;fontColor=default;endArrow=none;endFill=0;fillColor=#647687;" parent="1" source="Y0DUsHfOsYBiIvbtw7vV-86" edge="1">
          <mxGeometry relative="1" as="geometry">
            <mxPoint y="30" as="targetPoint" />
            <Array as="points">
              <mxPoint x="235" y="30" />
              <mxPoint y="30" />
            </Array>
          </mxGeometry>
        </mxCell>
        <mxCell id="Y0DUsHfOsYBiIvbtw7vV-86" value="&lt;font style=&quot;font-size: 14px;&quot; color=&quot;#000000&quot;&gt;User&lt;/font&gt;" style="verticalLabelPosition=middle;html=1;verticalAlign=middle;align=center;strokeColor=#314354;fillColor=#647687;shape=mxgraph.azure.laptop;pointerEvents=1;fontFamily=Helvetica;fontSize=11;fontColor=#ffffff;labelPosition=center;" parent="1" vertex="1">
          <mxGeometry x="170" y="-100" width="130" height="80" as="geometry" />
        </mxCell>
        <mxCell id="Y0DUsHfOsYBiIvbtw7vV-88" value="&lt;font style=&quot;font-size: 14px;&quot;&gt;controller send data to the user&amp;nbsp;&lt;/font&gt;" style="text;html=1;strokeColor=none;fillColor=none;align=center;verticalAlign=middle;whiteSpace=wrap;rounded=0;fontSize=11;fontFamily=Helvetica;fontColor=default;" parent="1" vertex="1">
          <mxGeometry x="10" y="40" width="220" height="30" as="geometry" />
        </mxCell>
        <mxCell id="Y0DUsHfOsYBiIvbtw7vV-89" value="&lt;span style=&quot;font-size: 14px;&quot;&gt;Program.cs does not go to the user&amp;nbsp;&lt;/span&gt;" style="text;html=1;strokeColor=none;fillColor=none;align=center;verticalAlign=middle;whiteSpace=wrap;rounded=0;fontSize=11;fontFamily=Helvetica;fontColor=default;" parent="1" vertex="1">
          <mxGeometry x="60" y="-70" width="110" as="geometry" />
        </mxCell>
        <mxCell id="Y0DUsHfOsYBiIvbtw7vV-104" style="edgeStyle=orthogonalEdgeStyle;shape=connector;rounded=0;orthogonalLoop=1;jettySize=auto;html=1;labelBackgroundColor=default;strokeColor=default;strokeWidth=5;align=center;verticalAlign=middle;fontFamily=Helvetica;fontSize=11;fontColor=default;endArrow=none;endFill=0;" parent="1" source="Y0DUsHfOsYBiIvbtw7vV-90" target="Y0DUsHfOsYBiIvbtw7vV-98" edge="1">
          <mxGeometry relative="1" as="geometry">
            <Array as="points">
              <mxPoint x="1190" y="510" />
              <mxPoint x="1190" y="510" />
            </Array>
          </mxGeometry>
        </mxCell>
        <mxCell id="Y0DUsHfOsYBiIvbtw7vV-90" value="&lt;font style=&quot;font-size: 18px;&quot;&gt;GacsDbContext.cs&lt;/font&gt;" style="html=1;verticalLabelPosition=middle;align=center;labelBackgroundColor=#ffffff;verticalAlign=middle;strokeWidth=2;strokeColor=#6c8ebf;shadow=0;dashed=0;shape=mxgraph.ios7.icons.document;labelPosition=center;fillColor=#dae8fc;" parent="1" vertex="1">
          <mxGeometry x="960" y="430" width="100" height="120" as="geometry" />
        </mxCell>
        <mxCell id="Y0DUsHfOsYBiIvbtw7vV-95" style="edgeStyle=orthogonalEdgeStyle;shape=connector;rounded=0;orthogonalLoop=1;jettySize=auto;html=1;entryX=0.509;entryY=-0.05;entryDx=0;entryDy=0;entryPerimeter=0;labelBackgroundColor=default;strokeColor=default;strokeWidth=5;align=center;verticalAlign=middle;fontFamily=Helvetica;fontSize=11;fontColor=default;endArrow=none;endFill=0;" parent="1" source="Y0DUsHfOsYBiIvbtw7vV-1" target="Y0DUsHfOsYBiIvbtw7vV-90" edge="1">
          <mxGeometry relative="1" as="geometry" />
        </mxCell>
        <mxCell id="Y0DUsHfOsYBiIvbtw7vV-98" value="&lt;font color=&quot;#000000&quot; style=&quot;font-size: 14px;&quot;&gt;Database&lt;/font&gt;" style="fontColor=#0066CC;verticalAlign=top;verticalLabelPosition=bottom;labelPosition=center;align=center;html=1;outlineConnect=0;fillColor=#CCCCCC;strokeColor=#A6A6A6;gradientColor=none;gradientDirection=north;strokeWidth=2;shape=mxgraph.networks.desktop_pc;fontFamily=Helvetica;fontSize=11;" parent="1" vertex="1">
          <mxGeometry x="1230" y="420" width="80" height="120" as="geometry" />
        </mxCell>
        <mxCell id="mWglA8MxYnBM9OoNy1Pj-6" style="edgeStyle=orthogonalEdgeStyle;shape=connector;rounded=0;orthogonalLoop=1;jettySize=auto;html=1;labelBackgroundColor=default;strokeColor=default;strokeWidth=5;align=center;verticalAlign=middle;fontFamily=Helvetica;fontSize=11;fontColor=default;endArrow=none;endFill=0;" edge="1" parent="1" source="mWglA8MxYnBM9OoNy1Pj-1" target="mWglA8MxYnBM9OoNy1Pj-3">
          <mxGeometry relative="1" as="geometry" />
        </mxCell>
        <mxCell id="mWglA8MxYnBM9OoNy1Pj-9" style="edgeStyle=orthogonalEdgeStyle;shape=connector;rounded=0;orthogonalLoop=1;jettySize=auto;html=1;labelBackgroundColor=default;strokeColor=default;strokeWidth=5;align=center;verticalAlign=middle;fontFamily=Helvetica;fontSize=11;fontColor=default;endArrow=none;endFill=0;" edge="1" parent="1" source="mWglA8MxYnBM9OoNy1Pj-1" target="Y0DUsHfOsYBiIvbtw7vV-90">
          <mxGeometry relative="1" as="geometry" />
        </mxCell>
        <mxCell id="mWglA8MxYnBM9OoNy1Pj-1" value="&lt;font style=&quot;font-size: 18px;&quot;&gt;SQLOrderRepository.cs&lt;/font&gt;" style="html=1;verticalLabelPosition=middle;align=center;labelBackgroundColor=#ffffff;verticalAlign=middle;strokeWidth=2;strokeColor=#6c8ebf;shadow=0;dashed=0;shape=mxgraph.ios7.icons.document;fillColor=#dae8fc;labelPosition=center;" vertex="1" parent="1">
          <mxGeometry x="610" y="1030" width="100" height="120" as="geometry" />
        </mxCell>
        <mxCell id="mWglA8MxYnBM9OoNy1Pj-10" style="edgeStyle=orthogonalEdgeStyle;shape=connector;rounded=0;orthogonalLoop=1;jettySize=auto;html=1;labelBackgroundColor=default;strokeColor=default;strokeWidth=5;align=center;verticalAlign=middle;fontFamily=Helvetica;fontSize=11;fontColor=default;endArrow=none;endFill=0;" edge="1" parent="1" source="mWglA8MxYnBM9OoNy1Pj-3" target="mWglA8MxYnBM9OoNy1Pj-7">
          <mxGeometry relative="1" as="geometry" />
        </mxCell>
        <mxCell id="mWglA8MxYnBM9OoNy1Pj-3" value="&lt;font style=&quot;font-size: 18px;&quot;&gt;IProductReposository.cs&lt;/font&gt;" style="html=1;verticalLabelPosition=middle;align=center;labelBackgroundColor=#ffffff;verticalAlign=middle;strokeWidth=2;strokeColor=#82b366;shadow=0;dashed=0;shape=mxgraph.ios7.icons.document;labelPosition=center;fillColor=#d5e8d4;" vertex="1" parent="1">
          <mxGeometry x="314" y="1030" width="100" height="120" as="geometry" />
        </mxCell>
        <mxCell id="mWglA8MxYnBM9OoNy1Pj-16" style="edgeStyle=orthogonalEdgeStyle;shape=connector;rounded=0;orthogonalLoop=1;jettySize=auto;html=1;labelBackgroundColor=default;strokeColor=default;strokeWidth=5;align=center;verticalAlign=middle;fontFamily=Helvetica;fontSize=11;fontColor=default;endArrow=none;endFill=0;" edge="1" parent="1" source="mWglA8MxYnBM9OoNy1Pj-7" target="mWglA8MxYnBM9OoNy1Pj-15">
          <mxGeometry relative="1" as="geometry">
            <Array as="points">
              <mxPoint x="-75" y="1140" />
            </Array>
          </mxGeometry>
        </mxCell>
        <mxCell id="mWglA8MxYnBM9OoNy1Pj-11" value="&lt;font style=&quot;font-size: 14px;&quot;&gt;Order.cs&lt;br&gt;&lt;span style=&quot;&quot;&gt;OrderDTO.cs&lt;/span&gt;&lt;br&gt;&lt;span style=&quot;&quot;&gt;CreateOrderDTO.cs&lt;br&gt;UpdateOrderDTO.cs&lt;/span&gt;&lt;br&gt;&lt;/font&gt;" style="html=1;verticalLabelPosition=middle;align=center;labelBackgroundColor=#ffffff;verticalAlign=middle;strokeWidth=2;strokeColor=#9673a6;shadow=0;dashed=0;shape=mxgraph.ios7.icons.documents;fontFamily=Helvetica;fontSize=11;labelPosition=center;fillColor=#e1d5e7;" vertex="1" parent="1">
          <mxGeometry x="45" y="1230" width="130" height="120" as="geometry" />
        </mxCell>
        <mxCell id="mWglA8MxYnBM9OoNy1Pj-13" style="edgeStyle=orthogonalEdgeStyle;shape=connector;rounded=0;orthogonalLoop=1;jettySize=auto;html=1;entryX=0.5;entryY=1.041;entryDx=0;entryDy=0;entryPerimeter=0;labelBackgroundColor=default;strokeColor=default;strokeWidth=5;align=center;verticalAlign=middle;fontFamily=Helvetica;fontSize=11;fontColor=default;endArrow=none;endFill=0;" edge="1" parent="1" source="mWglA8MxYnBM9OoNy1Pj-11" target="mWglA8MxYnBM9OoNy1Pj-7">
          <mxGeometry relative="1" as="geometry" />
        </mxCell>
        <mxCell id="mWglA8MxYnBM9OoNy1Pj-15" value="&lt;font style=&quot;font-size: 14px;&quot;&gt;&lt;font style=&quot;font-size: 14px;&quot;&gt;OrderStatusDTO.cs&lt;br&gt;&lt;/font&gt;OrderProductDTO.cs&lt;br&gt;&lt;/font&gt;" style="html=1;verticalLabelPosition=middle;align=center;labelBackgroundColor=#ffffff;verticalAlign=middle;strokeWidth=2;strokeColor=#9673a6;shadow=0;dashed=0;shape=mxgraph.ios7.icons.documents;fontFamily=Helvetica;fontSize=11;labelPosition=center;fillColor=#e1d5e7;" vertex="1" parent="1">
          <mxGeometry x="-140" y="1230" width="130" height="120" as="geometry" />
        </mxCell>
        <mxCell id="mWglA8MxYnBM9OoNy1Pj-17" style="edgeStyle=orthogonalEdgeStyle;shape=connector;rounded=0;orthogonalLoop=1;jettySize=auto;html=1;labelBackgroundColor=default;strokeColor=#d6b656;strokeWidth=5;align=center;verticalAlign=middle;fontFamily=Helvetica;fontSize=11;fontColor=default;endArrow=none;endFill=0;fillColor=#fff2cc;" edge="1" parent="1" source="Y0DUsHfOsYBiIvbtw7vV-77">
          <mxGeometry relative="1" as="geometry">
            <mxPoint x="40" y="1096" as="targetPoint" />
            <Array as="points">
              <mxPoint y="1096" />
              <mxPoint x="59" y="1096" />
            </Array>
          </mxGeometry>
        </mxCell>
        <mxCell id="mWglA8MxYnBM9OoNy1Pj-7" value="&lt;span style=&quot;font-size: 18px;&quot;&gt;OrderController.cs&lt;/span&gt;" style="html=1;verticalLabelPosition=middle;align=center;labelBackgroundColor=#ffffff;verticalAlign=middle;strokeWidth=2;strokeColor=#d79b00;shadow=0;dashed=0;shape=mxgraph.ios7.icons.document;labelPosition=center;fillColor=#ffe6cc;" vertex="1" parent="1">
          <mxGeometry x="60" y="1030" width="100" height="120" as="geometry" />
        </mxCell>
      </root>
    </mxGraphModel>
  </diagram>
</mxfile>
